<svg width="800" height="600" xmlns="http://www.w3.org/2000/svg">
  <rect x="327.00000709716" y="221.00000734705" width="341.00000706685" height="100.30148621108934" fill="#c11873" />
  <rect x="464.0032427639387" y="-2.786376646469364" width="420.87174592144027" height="166.85286692323967" fill="#944634" fill-opacity="0.05" />
  <rect x="288.22724030846285" y="88.5791207283284" width="412.0542486235808" height="429.14539713440695" fill="#b6b29f" fill-opacity="0.2" />
  <rect x="154.46240848726714" y="167.5706199139995" width="38.215107850663316" height="7.4679614660046925" fill="#894b21" fill-opacity="0.8" />
  <rect x="525.265670686279" y="203.01655398901562" width="859.7001689965068" height="527.9188058952611" fill="#19ea6c" fill-opacity="0.95" />
  <rect x="425.7847662997516" y="10.019382066853083" width="566.2978225833915" height="102.45224500038077" fill="#2707c8" fill-opacity="0.6" />
  <rect x="490.1273087713132" y="344.41594251230424" width="62.00098295492247" height="446.9222337169805" fill="#16a4e7" fill-opacity="0.3" />
  <rect x="296.9398668978327" y="-81.65701296463823" width="5.691544691608782" height="820.0275193556887" fill="#671acf" />
  <rect x="170.77478859522034" y="180.23759947873464" width="51.21660496126399" height="280.0570271450033" fill="#5943ad" fill-opacity="0.8" />
  <rect x="-58.92540097805714" y="405.64450782972835" width="165.69346387310665" height="721.9466498036538" fill="#26439d" fill-opacity="0.25" />
  <rect x="89.01595564678226" y="388.7278866392497" width="122.144680742093" height="37.703376749520565" fill="#540842" fill-opacity="0.55" />
  <rect x="585.8723140790954" y="55.51568397341413" width="207.82069184266678" height="28.08679907055179" fill="#931f25" fill-opacity="0.1" />
  <rect x="261.19050526100665" y="439.66529485805677" width="190.91854744770353" height="387.3251021159629" fill="#c7e462" fill-opacity="0.45" />
  <rect x="403.8863672300874" y="129.43300814776194" width="289.4761735776446" height="253.91451221676118" fill="#41f5be" fill-opacity="0.1" />
  <rect x="182.8273515492957" y="498.3438241321743" width="415.1514650805258" height="666.912476938866" fill="#f8d440" fill-opacity="0.45" />
  <rect x="556.9432442590545" y="181.01618561729566" width="180.34286909607616" height="348.1117834392539" fill="#dfaf31" fill-opacity="1.0" />
  <rect x="395.303851374196" y="205.19331067658715" width="31.30582298380396" height="50.86550730746335" fill="#9c70a8" fill-opacity="0.7" />
  <rect x="-40.655522974838036" y="40.576347550543346" width="315.4752854493012" height="77.51516674251205" fill="#b62e71" fill-opacity="0.15" />
  <rect x="642.4971399070627" y="99.83146724953991" width="41.81334432636923" height="575.2254399645996" fill="#763f0c" fill-opacity="0.85" />
  <rect x="230.7040420235934" y="84.59027082166762" width="572.6687004304246" height="305.05099417647995" fill="#0e737d" fill-opacity="0.75" />
  <rect x="135.46873951162084" y="360.5940171093339" width="26.15259999977927" height="573.8250591549232" fill="#faebf2" fill-opacity="1.0" />
  <rect x="653.5005628058232" y="413.80733236995786" width="321.878981031099" height="341.5562554040204" fill="#b1aa6d" fill-opacity="0.3" />
  <rect x="562.2960900264713" y="218.6612129217566" width="327.12445377844233" height="490.4616323461645" fill="#d84403" />
  <rect x="201.1330040798465" y="125.9095602063588" width="146.2177128990986" height="50.63803704528915" fill="#5e91df" />
  <rect x="609.6675696258748" y="312.70007847086947" width="358.6312837028335" height="583.3741772781688" fill="#f3e2f0" fill-opacity="0.7" />
  <rect x="476.05745306562085" y="380.9624141921334" width="120.49598156361037" height="112.25326539781963" fill="#8a861d" fill-opacity="0.05" />
  <rect x="522.2050192561819" y="448.3594972512153" width="35.35510487634492" height="63.19021646423347" fill="#0f580f" fill-opacity="0.5" />
  <rect x="102.56923318207134" y="492.93883517984455" width="27.599199434800195" height="653.7717548258679" fill="#e5ea88" fill-opacity="0.3" />
</svg>