<svg width="800" height="600" xmlns="http://www.w3.org/2000/svg">
  <rect x="665.51307750421341" y="366.02064750421341" width="469.25082750421341" height="252.92835750421341" fill="#aad843" />
  <rect x="-85.49999750421341" y="371.98126750421341" width="275.73491750421341" height="335.59944750421341" fill="#e568a2" />
  <rect x="449.5998750421341" y="228.90181750421341" width="132.3009750421341" height="24.68476750421341" fill="#025e0f" />
  <rect x="572.08007750421341" y="379.22866750421341" width="175.84038750421341" height="43.70087750421341" fill="#e9f41b" />
  <rect x="41.55643750421341" y="384.83128750421341" width="681.69892750421341" height="758.24744750421341" fill="#71f36a" />
  <rect x="213.40684750421341" y="-84.68747750421341" width="241.55951750421341" height="419.76339750421341" fill="#1c529a" />
  <rect x="-91.73267750421341" y="135.64874750421341" width="302.76276750421341" height="173.91815750421341" fill="#9e11ba" />
  <rect x="341.39224750421341" y="-78.68701750421341" width="8.33434750421341" height="392.08975750421341" fill="#a9cf99" />
  <rect x="269.64759750421341" y="20.42463750421341" width="129.78566750421341" height="536.09919750421341" fill="#7f025b" />
  <rect x="-9.42387750421341" y="-12.51828750421341" width="154.35289750421341" height="323.18009750421341" fill="#8a4c20" />
  <rect x="473.62654750421341" y="469.8386750421341" width="191.60938750421341" height="256.87324750421341" fill="#817528" />
  <rect x="499.74553750421341" y="106.51933750421341" width="660.27103750421341" height="61.79626750421341" fill="#74dd31" />
  <rect x="362.63791750421341" y="234.50751750421341" width="482.40498750421341" height="446.16055750421341" fill="#a56dee" />
  <rect x="344.15278750421341" y="17.24965750421341" width="121.12099750421341" height="244.91898750421341" fill="#f59906" />
  <rect x="587.96127750421341" y="-61.03941750421341" width="75.17887750421341" height="186.69271750421341" fill="#19296b" />
</svg>