<svg width="800" height="600" xmlns="http://www.w3.org/2000/svg">
  <rect x="665.51307750416129" y="366.02064754950509" width="469.25082135271316" height="252.92834921760965" fill="#aad843" />
  <rect x="-85.49998603755" y="371.9812559113726" width="275.7349063058274" height="335.59943854626164" fill="#e568a2" />
  <rect x="449.5997981738051" y="228.90180789009082" width="132.3009010005458" height="24.684757966614985" fill="#025e0f" />
  <rect x="572.0800678484828" y="379.22866280356556" width="175.84037851560825" height="43.70086941385196" fill="#e9f41b" />
  <rect x="41.5564342846979" y="384.8312784141859" width="681.6989232606223" height="758.2474446644342" fill="#71f36a" />
  <rect x="213.40684058245677" y="-84.6874736444927" width="241.55950952804503" height="419.76339108638564" fill="#1c529a" />
  <rect x="-91.73267058503293" y="135.64873536660323" width="302.7627573735585" height="173.9181545291416" fill="#9e11ba" />
  <rect x="341.39224363699" y="-78.6870058413975" width="8.334339144055786" height="392.08975474396794" fill="#a9cf99" />
  <rect x="269.64758852198577" y="20.424626948334804" width="129.78565857284934" height="536.0991874999132" fill="#7f025b" />
  <rect x="-9.423870846167844" y="-12.518279871756533" width="154.35289315130174" height="323.1800911467428" fill="#8a4c20" />
  <rect x="473.6265366381343" y="469.8385991463638" width="191.60937978344876" height="256.87323861448147" fill="#817528" />
  <rect x="499.74552922471287" y="106.51932708466072" width="660.2710294384583" height="61.79626137483326" fill="#74dd31" />
  <rect x="362.63791473106204" y="234.50750876610476" width="482.40498148888565" height="446.1605504620866" fill="#a56dee" />
  <rect x="344.15277827079666" y="17.249654376039686" width="121.12098681092303" height="244.91898070809302" fill="#f59906" />
  <rect x="587.9612716366142" y="-61.03941361179383" width="75.17886639398009" height="186.69270969388944" fill="#19296b" />
</svg>